# xmcd CD database file
#
# Track frame offsets:
#	150
#	54317
#	116621
#	165216
#	196284
#	248362
#
# Disc length: 4078 seconds
#
# Revision: 0
# Processed by: cddbd v1.5.1PL0 Copyright (c) Steve Scherf et al.
# Submitted via: CDex 1.50beta10
#
DISCID=3c0fec06
DTITLE=Pat Metheny - North Wind 2000(2)
DYEAR=2000
DGENRE=Jazz
TTITLE0=Sling And Allows
TTITLE1=Half Past Late
TTITLE2=Timeline
TTITLE3=Into The Dream
TTITLE4=Extradition
TTITLE5=Everyday[I Thank You]
EXTD=YEAR: 2000
EXTT0=
EXTT1=
EXTT2=
EXTT3=
EXTT4=
EXTT5=
PLAYORDER=
